<?xml version="1.0" encoding="utf-8"?>
<!-- Generator: Adobe Illustrator 18.1.0, SVG Export Plug-In . SVG Version: 6.00 Build 0)  -->
<svg version="1.1" id="Capa_1" xmlns="http://www.w3.org/2000/svg" xmlns:xlink="http://www.w3.org/1999/xlink" x="0px" y="0px"
	 viewBox="140.5 236.5 30 30" enable-background="new 140.5 236.5 30 30" xml:space="preserve">
<g>
	<g>
		<path d="M163.6,263.7c0,0.8,0.2,1.4,0.7,1.9c0.5,0.5,1,0.8,1.6,0.8c0.6,0,1.2-0.3,1.6-0.8c0.5-0.5,0.7-1.2,0.7-1.9
			c0-0.8-0.2-1.4-0.7-1.9c-0.5-0.5-1-0.8-1.6-0.8c-0.6,0-1.2,0.3-1.6,0.8C163.8,262.3,163.6,263,163.6,263.7z"/>
		<path d="M170.2,239.6c-0.2-0.3-0.5-0.4-0.8-0.4h-21.7c0-0.1,0-0.3-0.1-0.5c0-0.3-0.1-0.5-0.1-0.6c0-0.2-0.1-0.3-0.1-0.6
			c-0.1-0.2-0.1-0.4-0.2-0.5c-0.1-0.1-0.2-0.2-0.4-0.3c-0.2-0.1-0.3-0.1-0.5-0.1h-4.6c-0.3,0-0.6,0.1-0.8,0.4
			c-0.2,0.3-0.3,0.6-0.3,1c0,0.4,0.1,0.7,0.3,1c0.2,0.3,0.5,0.4,0.8,0.4h3.7l3.2,17.5c0,0.1-0.1,0.3-0.4,0.8
			c-0.2,0.5-0.4,0.9-0.5,1.3c-0.1,0.4-0.2,0.6-0.2,0.8c0,0.4,0.1,0.7,0.3,1c0.2,0.3,0.5,0.4,0.8,0.4h1.2h16.2h1.2
			c0.3,0,0.6-0.1,0.8-0.4c0.2-0.3,0.3-0.6,0.3-1s-0.1-0.7-0.3-1c-0.2-0.3-0.5-0.4-0.8-0.4h-16.6c0.3-0.7,0.4-1.1,0.4-1.4
			c0-0.1,0-0.3,0-0.5s-0.1-0.4-0.1-0.6c0-0.2-0.1-0.4-0.1-0.5l18.8-2.6c0.3,0,0.5-0.2,0.7-0.5c0.2-0.3,0.3-0.6,0.3-0.9v-10.9
			C170.5,240.2,170.4,239.9,170.2,239.6z"/>
		<path d="M147.5,263.7c0,0.8,0.2,1.4,0.7,1.9c0.5,0.5,1,0.8,1.6,0.8c0.6,0,1.2-0.3,1.6-0.8c0.5-0.5,0.7-1.2,0.7-1.9
			c0-0.8-0.2-1.4-0.7-1.9c-0.5-0.5-1-0.8-1.6-0.8c-0.6,0-1.2,0.3-1.6,0.8C147.7,262.3,147.5,263,147.5,263.7z"/>
	</g>
</g>
</svg>
