<?xml version="1.0" encoding="utf-8"?>
<!-- Generator: Adobe Illustrator 18.1.0, SVG Export Plug-In . SVG Version: 6.00 Build 0)  -->
<svg version="1.1" id="Camada_1" xmlns="http://www.w3.org/2000/svg" xmlns:xlink="http://www.w3.org/1999/xlink" x="0px" y="0px"
	 viewBox="0 0 786 259" enable-background="new 0 0 786 259" xml:space="preserve">
<circle fill="#66C15F" cx="397.1" cy="130.6" r="115.7"/>
<circle fill="#505DFF" cx="669.1" cy="131.6" r="115.7"/>
<path fill="none" stroke="#000000" stroke-width="8" stroke-miterlimit="10" d="M237.1,84.4c-3.4-40-29.7-69-62.6-69
	c-21.9,0-42,12.7-53.3,33c-11.2-20.6-30.5-33-52-33c-32.9,0-59.2,29-62.6,69c-0.3,1.8-1.4,11.1,2,26.2c4.8,21.9,15.9,41.7,32,57.5
	l80.6,78.7l82-78.7c16.2-15.7,27.2-35.6,32-57.5C238.5,95.5,237.4,86.2,237.1,84.4z"/>
</svg>
